<?xml version="1.0" encoding="UTF-8"?>
<svg width="972px" height="972px" viewBox="0 0 972 972" version="1.1" xmlns="http://www.w3.org/2000/svg" xmlns:xlink="http://www.w3.org/1999/xlink">
    <title>icon</title>
    <g id="icon" stroke="none" stroke-width="1" fill="none" fill-rule="evenodd">
        <g id="stocks-graphic-svgrepo-com" transform="translate(86, 166)" fill="#010002" fill-rule="nonzero">
            <path d="M16.9540478,8.26533412 C7.71772146,14.2182265 0,22.8939666 0,35.3069485 L0,535.987243 C0,535.987243 -1.99243374,639.31197 97.1746118,639.31197 L728.494868,639.31197 C748.53249,639.31197 777.75305,633.686087 788.714514,621.126285 C794.974394,613.938768 800.002986,604.772515 800.002986,593.831072 C800.002986,582.706103 794.81089,572.505435 788.42421,564.156704 C777.536157,549.92849 748.53249,542.070272 728.494868,542.013546 L168.719436,540.251703 C148.665129,540.178293 118.426838,542.791026 106.921472,533.264396 C101.405703,528.709632 97.1746118,521.211791 97.1746118,509.015702 L97.1746118,427.560514 C97.1746118,407.522891 112.674155,386.38078 131.804162,380.391182 L258.26642,340.662967 C277.396427,334.656685 305.68935,339.828761 321.462513,352.205038 L465.730059,465.400088 C481.503222,477.776364 506.112292,476.671876 520.70422,462.914154 L767.822665,230.134038 C782.414592,216.376317 794.520586,188.99101 794.847595,168.953387 L796.188998,89.8940375 C796.53269,69.8564148 785.064029,64.8478433 770.598901,78.7323642 L523.680666,315.453268 C509.215538,329.337789 484.459647,330.862717 468.399518,318.866838 L326.417695,212.802579 C310.354229,200.8067 282.007917,196.46883 263.078119,203.092424 L132.491547,248.940373 C113.578434,255.583988 98.152301,244.712619 98.0822277,224.658312 L97.3548002,67.4672495 C97.264706,47.4296268 90.7111855,17.9754893 76.9901689,7.30099225 C63.2691523,-3.38685213 32.4535911,-1.71844058 16.9540478,8.26533412 Z" id="Path"></path>
        </g>
    </g>
</svg>